HIERARCHY
ROOT Hips
{
    OFFSET 0.000000 0.000000 0.000000
    CHANNELS 6 Xposition Yposition Zposition Zrotation Xrotation Yrotation
    JOINT Spine
    {
        OFFSET -0.000000 7.305680 0.000000
        CHANNELS 3 Zrotation Xrotation Yrotation
        JOINT Spine1
        {
            OFFSET -0.000000 20.356600 0.000000
            CHANNELS 3 Zrotation Xrotation Yrotation
            JOINT Neck
            {
                OFFSET -0.000000 22.138500 0.000000
                CHANNELS 3 Zrotation Xrotation Yrotation
                JOINT Head
                {
                    OFFSET -0.000000 13.809501 1.781870
                    CHANNELS 3 Zrotation Xrotation Yrotation
                    End Site
                    {
                        OFFSET -0.000000 17.818779 0.000000
                    }
                }
            }
            JOINT LeftShoulder
            {
                OFFSET 3.599130 17.990000 0.023591
                CHANNELS 3 Zrotation Xrotation Yrotation
                JOINT LeftArm
                {
                    OFFSET 12.560999 0.000000 0.000000
                    CHANNELS 3 Zrotation Xrotation Yrotation
                    JOINT LeftForeArm
                    {
                        OFFSET 22.903299 0.000000 0.000000
                        CHANNELS 3 Zrotation Xrotation Yrotation
                        JOINT LeftHand
                        {
                            OFFSET 21.865299 0.000000 0.000000
                            CHANNELS 3 Zrotation Xrotation Yrotation
                            JOINT LeftHandThumb1
                            {
                                OFFSET 1.853710 -2.106480 2.949080
                                CHANNELS 3 Zrotation Xrotation Yrotation
                                JOINT LeftHandThumb2
                                {
                                    OFFSET 2.049150 0.000000 1.336400
                                    CHANNELS 3 Zrotation Xrotation Yrotation
                                    JOINT LeftHandThumb3
                                    {
                                        OFFSET 2.672810 0.000000 0.000000
                                        CHANNELS 3 Zrotation Xrotation Yrotation
                                        End Site
                                        {
                                            OFFSET 2.381310 0.000000 0.000000
                                        }
                                    }
                                }
                            }
                            JOINT LeftHandIndex1
                            {
                                OFFSET 7.583340 0.000000 2.949080
                                CHANNELS 3 Zrotation Xrotation Yrotation
                                JOINT LeftHandIndex2
                                {
                                    OFFSET 4.454680 0.000000 0.000000
                                    CHANNELS 3 Zrotation Xrotation Yrotation
                                    JOINT LeftHandIndex3
                                    {
                                        OFFSET 2.227340 0.000000 0.000000
                                        CHANNELS 3 Zrotation Xrotation Yrotation
                                        End Site
                                        {
                                            OFFSET 1.984424 0.000000 0.000000
                                        }
                                    }
                                }
                            }
                            JOINT LeftHandMiddle1
                            {
                                OFFSET 7.583340 0.000000 0.977409
                                CHANNELS 3 Zrotation Xrotation Yrotation
                                JOINT LeftHandMiddle2
                                {
                                    OFFSET 4.900150 0.000000 0.000000
                                    CHANNELS 3 Zrotation Xrotation Yrotation
                                    JOINT LeftHandMiddle3
                                    {
                                        OFFSET 2.672810 0.000000 0.000000
                                        CHANNELS 3 Zrotation Xrotation Yrotation
                                        End Site
                                        {
                                            OFFSET 2.381310 0.000000 0.000000
                                        }
                                    }
                                }
                            }
                            JOINT LeftHandRing1
                            {
                                OFFSET 7.162050 0.000000 -0.977409
                                CHANNELS 3 Zrotation Xrotation Yrotation
                                JOINT LeftHandRing2
                                {
                                    OFFSET 4.454680 0.000000 0.000000
                                    CHANNELS 3 Zrotation Xrotation Yrotation
                                    JOINT LeftHandRing3
                                    {
                                        OFFSET 2.227340 0.000000 0.000000
                                        CHANNELS 3 Zrotation Xrotation Yrotation
                                        End Site
                                        {
                                            OFFSET 1.984424 0.000000 0.000000
                                        }
                                    }
                                }
                            }
                            JOINT LeftHandPinky1
                            {
                                OFFSET 6.740750 0.000000 -2.949080
                                CHANNELS 3 Zrotation Xrotation Yrotation
                                JOINT LeftHandPinky2
                                {
                                    OFFSET 3.563750 0.000000 0.000000
                                    CHANNELS 3 Zrotation Xrotation Yrotation
                                    JOINT LeftHandPinky3
                                    {
                                        OFFSET 1.781870 0.000000 0.000000
                                        CHANNELS 3 Zrotation Xrotation Yrotation
                                        End Site
                                        {
                                            OFFSET 1.587538 0.000000 0.000000
                                        }
                                    }
                                }
                            }
                        }
                    }
                }
            }
            JOINT RightShoulder
            {
                OFFSET -3.506990 17.990000 0.023591
                CHANNELS 3 Zrotation Xrotation Yrotation
                JOINT RightArm
                {
                    OFFSET -12.560999 0.000000 0.000000
                    CHANNELS 3 Zrotation Xrotation Yrotation
                    JOINT RightForeArm
                    {
                        OFFSET -22.903299 0.000000 0.000000
                        CHANNELS 3 Zrotation Xrotation Yrotation
                        JOINT RightHand
                        {
                            OFFSET -21.865299 0.000000 0.000000
                            CHANNELS 3 Zrotation Xrotation Yrotation
                            JOINT RightHandThumb1
                            {
                                OFFSET -1.853710 -2.106480 2.949080
                                CHANNELS 3 Zrotation Xrotation Yrotation
                                JOINT RightHandThumb2
                                {
                                    OFFSET -2.049150 0.000000 1.336400
                                    CHANNELS 3 Zrotation Xrotation Yrotation
                                    JOINT RightHandThumb3
                                    {
                                        OFFSET -2.672810 0.000000 0.000000
                                        CHANNELS 3 Zrotation Xrotation Yrotation
                                        End Site
                                        {
                                            OFFSET -2.381310 0.000000 0.000000
                                        }
                                    }
                                }
                            }
                            JOINT RightHandIndex1
                            {
                                OFFSET -7.583340 0.000000 2.949080
                                CHANNELS 3 Zrotation Xrotation Yrotation
                                JOINT RightHandIndex2
                                {
                                    OFFSET -4.454680 0.000000 0.000000
                                    CHANNELS 3 Zrotation Xrotation Yrotation
                                    JOINT RightHandIndex3
                                    {
                                        OFFSET -2.227340 0.000000 0.000000
                                        CHANNELS 3 Zrotation Xrotation Yrotation
                                        End Site
                                        {
                                            OFFSET -1.984424 0.000000 0.000000
                                        }
                                    }
                                }
                            }
                            JOINT RightHandMiddle1
                            {
                                OFFSET -7.583340 0.000000 0.977409
                                CHANNELS 3 Zrotation Xrotation Yrotation
                                JOINT RightHandMiddle2
                                {
                                    OFFSET -4.900150 0.000000 0.000000
                                    CHANNELS 3 Zrotation Xrotation Yrotation
                                    JOINT RightHandMiddle3
                                    {
                                        OFFSET -2.672810 0.000000 0.000000
                                        CHANNELS 3 Zrotation Xrotation Yrotation
                                        End Site
                                        {
                                            OFFSET -2.381310 0.000000 0.000000
                                        }
                                    }
                                }
                            }
                            JOINT RightHandRing1
                            {
                                OFFSET -7.162050 0.000000 -0.977409
                                CHANNELS 3 Zrotation Xrotation Yrotation
                                JOINT RightHandRing2
                                {
                                    OFFSET -4.454680 0.000000 0.000000
                                    CHANNELS 3 Zrotation Xrotation Yrotation
                                    JOINT RightHandRing3
                                    {
                                        OFFSET -2.227340 0.000000 0.000000
                                        CHANNELS 3 Zrotation Xrotation Yrotation
                                        End Site
                                        {
                                            OFFSET -1.984424 0.000000 0.000000
                                        }
                                    }
                                }
                            }
                            JOINT RightHandPinky1
                            {
                                OFFSET -6.740750 0.000000 -2.949080
                                CHANNELS 3 Zrotation Xrotation Yrotation
                                JOINT RightHandPinky2
                                {
                                    OFFSET -3.563750 0.000000 0.000000
                                    CHANNELS 3 Zrotation Xrotation Yrotation
                                    JOINT RightHandPinky3
                                    {
                                        OFFSET -1.781870 0.000000 0.000000
                                        CHANNELS 3 Zrotation Xrotation Yrotation
                                        End Site
                                        {
                                            OFFSET -1.587538 0.000000 0.000000
                                        }
                                    }
                                }
                            }
                        }
                    }
                }
            }
        }
    }
    JOINT LeftUpLeg
    {
        OFFSET 8.909360 0.000000 0.000000
        CHANNELS 3 Zrotation Xrotation Yrotation
        JOINT LeftLeg
        {
            OFFSET -0.000000 -38.765602 0.000000
            CHANNELS 3 Zrotation Xrotation Yrotation
            JOINT LeftFoot
            {
                OFFSET -0.000000 -35.245003 0.000000
                CHANNELS 3 Zrotation Xrotation Yrotation
                JOINT LeftToeBase
                {
                    OFFSET -0.000000 -5.791090 13.364000
                    CHANNELS 3 Zrotation Xrotation Yrotation
                    End Site
                    {
                        OFFSET -0.000000 0.000000 3.563756
                    }
                }
            }
        }
    }
    JOINT RightUpLeg
    {
        OFFSET -8.909360 0.000000 0.000000
        CHANNELS 3 Zrotation Xrotation Yrotation
        JOINT RightLeg
        {
            OFFSET -0.000000 -38.765602 0.000000
            CHANNELS 3 Zrotation Xrotation Yrotation
            JOINT RightFoot
            {
                OFFSET -0.000000 -35.245003 0.000000
                CHANNELS 3 Zrotation Xrotation Yrotation
                JOINT RightToeBase
                {
                    OFFSET -0.000000 -5.791090 13.364000
                    CHANNELS 3 Zrotation Xrotation Yrotation
                    End Site
                    {
                        OFFSET -0.000000 0.000000 3.563756
                    }
                }
            }
        }
    }
}
MOTION
Frames:    4
Frame Time:    0.033333
-16.781525    77.635315    100.426949    6.102267    -0.779523    -15.460938    9.476723    6.969762    -1.294833    -25.757015    1.014066    -0.003627    6.279912    -0.931921    2.332016    11.147740    -9.741355    2.703602    1.571218    5.563207    -0.843821    -78.636856    1.309374    0.675765    22.663713    -22.203552    -12.917209    33.304356    -42.283520    27.802559    5.161526    4.794613    11.771576    -0.000000    0.000000    10.811686    -0.000000    0.000000    21.623373    -14.279301    1.432614    -5.610278    -28.698997    0.000000    0.000000    -14.349499    0.000000    0.000000    -38.166203    -10.895057    2.506174    -55.528324    0.000000    0.000000    -36.014164    0.000000    0.000000    -61.921577    -25.429344    5.070807    -82.357666    0.000000    0.000000    -57.678829    0.000000    0.000000    -89.999992    -39.999996    0.000000    -110.000000    0.000000    0.000000    -80.000000    0.000000    0.000000    -16.383234    -2.513728    -2.860852    39.337528    20.462107    18.143602    -16.677904    -8.233187    10.403178    -13.190208    -21.490591    -16.422729    -0.059331    0.494708    -0.819130    0.000000    0.000000    -1.200183    0.000000    0.000000    -2.400366    12.212261    0.092633    0.427992    24.425215    0.000000    -0.000000    12.212607    0.000000    -0.000000    26.849787    -1.409105    -1.409295    52.664894    0.000000    -0.000000    26.882008    0.000000    -0.000000    41.450581    -3.325895    -2.809168    80.904572    0.000000    -0.000000    41.551392    0.000000    -0.000000    56.484200    -5.603216    -3.699847    110.000000    0.000000    -0.000000    56.665318    0.000000    -0.000000    17.909447    0.265230    3.794175    4.046069    10.620568    23.244246    -29.016094    14.400787    -24.975475    0.307405    -7.579295    -1.981562    -28.857210    -7.639523    2.674495    -2.062123    9.549206    -19.847654    30.754326    2.211243    9.848698    -0.366249    -1.711201    0.407615    
-16.893486    77.736061    100.657860    6.602397    -0.571446    -15.241243    10.463950    6.896837    -1.215179    -28.560432    -0.840320    -0.405769    8.991244    0.939515    1.994969    9.774039    -8.726210    2.818878    0.257705    4.262881    -0.788463    -76.036308    -4.300947    2.718539    18.803789    -31.862400    -14.910021    41.663300    -48.827862    32.048496    6.993629    4.655688    13.503736    -0.000000    0.000000    12.052953    -0.000000    0.000000    24.105907    -8.988184    0.499029    -3.151732    -18.003824    0.000000    0.000000    -9.001912    0.000000    0.000000    -34.248718    -11.751918    4.560257    -48.362572    0.000000    0.000000    -32.431282    0.000000    0.000000    -59.680450    -26.099714    6.366138    -78.721298    0.000000    0.000000    -55.860661    0.000000    0.000000    -89.999992    -39.999996    0.000000    -110.000000    0.000000    0.000000    -80.000000    0.000000    0.000000    -16.918396    -2.348215    -3.243659    40.730499    21.483269    17.874777    -15.242366    -9.462771    10.161522    -13.357038    -20.772629    -17.286263    -0.060272    0.446621    -0.743625    0.000000    0.000000    -1.126737    0.000000    0.000000    -2.253474    12.466396    0.019098    0.086383    24.932819    0.000000    -0.000000    12.466410    0.000000    -0.000000    27.716190    -1.428178    -1.483861    53.004990    0.000000    -0.000000    27.748413    0.000000    -0.000000    42.939075    -3.237195    -2.619410    81.077171    0.000000    -0.000000    43.030415    0.000000    -0.000000    58.623711    -5.344727    -3.251180    110.000000    0.000000    -0.000000    58.775505    0.000000    -0.000000    17.844475    0.387113    4.400539    3.708649    9.734665    22.088848    -29.159988    15.231738    -24.669842    0.285210    -7.767836    -1.953840    -29.113941    -7.212903    2.484460    -2.431448    8.738730    -19.954266    30.783924    2.565770    9.716939    -0.407815    -1.631461    0.481905    
-16.843586    77.707947    100.919319    6.665912    -0.533455    -15.200374    10.995975    6.760250    -1.054769    -30.264111    -2.129861    -0.708875    11.681689    2.975168    1.615297    7.997643    -8.168105    3.077083    -0.907440    3.329194    -0.881485    -73.137604    -9.701275    4.303478    12.424738    -42.752834    -19.912148    56.888702    -52.013058    42.568626    7.439940    4.513577    13.783678    -0.000000    0.000000    12.166087    -0.000000    0.000000    24.332174    -7.030283    0.388208    -3.144759    -14.081878    0.000000    0.000000    -7.040939    0.000000    0.000000    -32.889023    -11.783188    4.721210    -45.734859    0.000000    0.000000    -31.117428    0.000000    0.000000    -58.935719    -26.142933    6.548702    -77.387848    0.000000    0.000000    -55.193916    0.000000    0.000000    -89.999992    -39.999996    0.000000    -110.000000    0.000000    0.000000    -80.000000    0.000000    0.000000    -17.338348    -2.149219    -3.459334    41.366673    22.203863    17.931482    -13.368176    -11.473035    9.484952    -12.437510    -19.606596    -17.219759    -0.078735    0.526442    -0.881574    0.000000    0.000000    -1.275279    0.000000    0.000000    -2.550558    12.501198    0.000000    -0.000000    25.002396    0.000000    -0.000000    12.501198    0.000000    -0.000000    28.291893    -1.515626    -1.549025    53.051605    0.000000    -0.000000    28.327328    0.000000    -0.000000    44.056812    -3.395281    -2.628458    81.100815    0.000000    -0.000000    44.153450    0.000000    -0.000000    60.305405    -5.562756    -3.164042    110.000000    0.000000    -0.000000    60.459164    0.000000    -0.000000    17.897659    0.111769    4.856836    3.726368    10.497014    21.161573    -29.373461    14.742531    -25.054625    0.274956    -7.789536    -1.928322    -29.145727    -6.887638    2.392619    -2.652900    8.331767    -20.211580    30.503487    3.030887    9.982392    -0.379115    -1.436143    0.455690    
-16.647247    77.567558    101.230850    6.096071    -0.849813    -15.483526    11.149711    6.860935    -0.688357    -30.673141    -2.724728    -0.759628    13.959437    4.728049    1.204266    6.410437    -7.947174    3.316782    -1.747269    2.375004    -0.832544    -70.799759    -13.517133    5.706557    4.579665    -52.718555    -28.274881    74.903740    -54.308483    55.830013    8.847313    4.141470    14.742737    -0.000000    0.000000    12.706690    -0.000000    0.000000    25.413380    -4.101911    0.107478    -1.498350    -8.206633    0.000000    0.000000    -4.103316    0.000000    0.000000    -30.700665    -12.162257    6.096814    -41.798447    0.000000    0.000000    -29.149225    0.000000    0.000000    -57.667007    -26.510208    7.402302    -75.390259    0.000000    0.000000    -54.195133    0.000000    0.000000    -89.999992    -39.999996    0.000000    -110.000000    0.000000    0.000000    -80.000000    0.000000    0.000000    -17.689013    -2.009060    -3.534778    41.576759    21.635183    17.945116    -11.553250    -11.208974    8.771219    -12.202929    -18.508730    -17.412540    -0.056266    0.572368    -0.940185    0.000000    0.000000    -1.350194    0.000000    0.000000    -2.700389    12.499461    0.000000    -0.000000    24.998928    0.000000    -0.000000    12.499461    0.000000    -0.000000    28.849525    -1.468146    -1.442926    53.049278    0.000000    -0.000000    28.881929    0.000000    -0.000000    45.177757    -3.282872    -2.415296    81.099640    0.000000    -0.000000    45.264400    0.000000    -0.000000    62.010246    -5.360029    -2.842262    110.000000    0.000000    -0.000000    62.143311    0.000000    -0.000000    18.238626    -0.131669    4.952839    3.770873    12.727385    20.245655    -29.903418    12.317070    -25.039705    0.268418    -7.610013    -1.874947    -28.808107    -6.564591    2.595689    -2.647807    8.415553    -20.036869    30.014179    3.306781    10.138080    -0.361857    -1.374102    0.434418    
